<svg width="32" height="32" viewBox="0 0 32 32" fill="none" xmlns="http://www.w3.org/2000/svg">
<g clip-path="url(#clip0_127_8)">
<path d="M8.48 24.344C8.69333 24.5573 9.07733 24.7707 9.632 24.984C10.1867 25.1973 10.7733 25.304 11.392 25.304C12.0533 25.304 12.672 25.2507 13.248 25.144C13.824 25.016 14.3147 24.824 14.72 24.568C15.1467 24.312 15.4773 23.9813 15.712 23.576C15.9467 23.1493 16.064 22.6373 16.064 22.04C16.064 21.272 15.8613 20.6213 15.456 20.088C15.0507 19.5333 14.5493 19.032 13.952 18.584C13.3547 18.136 12.6933 17.6987 11.968 17.272C11.264 16.824 10.6133 16.3227 10.016 15.768C9.41867 15.2133 8.91733 14.5627 8.512 13.816C8.10667 13.0693 7.904 12.152 7.904 11.064C7.904 9.93333 8.128 8.94133 8.576 8.088C9.024 7.23467 9.64267 6.52 10.432 5.944C11.2213 5.368 12.16 4.94133 13.248 4.664C14.336 4.36533 15.5307 4.216 16.832 4.216C18.1333 4.216 19.3173 4.312 20.384 4.504C21.472 4.67467 22.4213 4.952 23.232 5.336C23.1253 5.76267 22.9867 6.25333 22.816 6.808C22.6453 7.36267 22.4533 7.91733 22.24 8.472C22.048 9.00533 21.8453 9.51733 21.632 10.008C21.44 10.4773 21.2693 10.872 21.12 11.192H19.808L19.264 6.808C18.9653 6.63733 18.56 6.50933 18.048 6.424C17.5573 6.33867 17.0453 6.296 16.512 6.296C15.9573 6.296 15.4347 6.36 14.944 6.488C14.4747 6.59467 14.0587 6.776 13.696 7.032C13.3547 7.26667 13.0773 7.576 12.864 7.96C12.6507 8.344 12.544 8.80267 12.544 9.336C12.544 10.0827 12.7467 10.7333 13.152 11.288C13.5787 11.8427 14.0907 12.3547 14.688 12.824C15.3067 13.272 15.9787 13.7307 16.704 14.2C17.4293 14.648 18.0907 15.16 18.688 15.736C19.3067 16.2907 19.8187 16.9413 20.224 17.688C20.6507 18.4347 20.864 19.3307 20.864 20.376C20.864 22.6373 20.0213 24.376 18.336 25.592C16.672 26.7867 14.2827 27.384 11.168 27.384C10.4853 27.384 9.792 27.3413 9.088 27.256C8.40533 27.1707 7.75467 27.0533 7.136 26.904C6.51733 26.7547 5.97333 26.5947 5.504 26.424C5.03467 26.2533 4.69333 26.072 4.48 25.88C4.608 25.368 4.768 24.8347 4.96 24.28C5.152 23.704 5.35467 23.1387 5.568 22.584C5.78133 22.008 5.99467 21.4747 6.208 20.984C6.44267 20.472 6.656 20.024 6.848 19.64H8.16L8.48 24.344ZM19.4132 23.592C19.4132 22.44 19.7812 21.512 20.5172 20.808C21.2532 20.104 22.2292 19.752 23.4452 19.752C24.6612 19.752 25.6532 20.104 26.4212 20.808C27.1892 21.512 27.5732 22.44 27.5732 23.592C27.5732 24.744 27.1892 25.672 26.4212 26.376C25.6532 27.048 24.6612 27.384 23.4452 27.384C22.2292 27.384 21.2532 27.048 20.5172 26.376C19.7812 25.672 19.4132 24.744 19.4132 23.592Z" fill="#DF7C61"/>
</g>
<defs>
<clipPath id="clip0_127_8">
<rect width="32" height="32" fill="white"/>
</clipPath>
</defs>
</svg>
